<?xml version="1.0" standalone="no"?>
<!DOCTYPE svg PUBLIC "-//W3C//DTD SVG 20010904//EN"
 "http://www.w3.org/TR/2001/REC-SVG-20010904/DTD/svg10.dtd">
<svg version="1.0" xmlns="http://www.w3.org/2000/svg"
 width="398.000000pt" height="398.000000pt" viewBox="0 0 398.000000 398.000000"
 preserveAspectRatio="xMidYMid meet">
<metadata>
Created by potrace 1.14, written by Peter Selinger 2001-2017
</metadata>
<g transform="translate(0.000000,398.000000) scale(0.100000,-0.100000)"
fill="#000000" stroke="none">
<path d="M1100 3367 c-142 -32 -241 -122 -301 -272 -22 -56 -24 -72 -23 -260
l0 -200 42 -155 c57 -216 85 -292 115 -310 33 -20 136 -55 143 -48 3 3 -3 57
-13 119 -23 147 -25 560 -4 657 17 78 58 143 112 179 36 24 53 28 133 31 105
4 163 -7 372 -73 163 -51 274 -79 283 -70 7 8 -36 46 -155 136 -282 211 -531
305 -704 266z"/>
<path d="M2735 3340 c-171 -27 -277 -95 -524 -334 -191 -186 -264 -238 -370
-262 -121 -29 -247 -5 -399 77 -52 27 -97 47 -101 43 -11 -12 141 -142 209
-178 90 -48 167 -66 276 -66 191 0 397 87 634 267 129 98 285 145 363 108 128
-61 157 -326 83 -762 -15 -89 -19 -133 -12 -133 14 0 187 58 203 68 11 7 33
112 74 352 7 41 13 140 13 220 0 121 -4 159 -23 230 -76 278 -220 403 -426
370z"/>
<path d="M335 2523 c-34 -117 -95 -203 -190 -268 -65 -46 -60 -55 36 -55 50 0
77 6 118 26 29 15 55 33 58 40 3 8 8 14 12 14 4 0 46 -30 92 -67 587 -464
1341 -639 2079 -482 326 70 706 249 986 464 l81 62 24 -19 c54 -42 97 -58 161
-58 35 0 68 4 75 8 8 5 -12 25 -55 57 -78 59 -145 151 -168 233 -9 31 -20 61
-24 65 -13 14 -50 -59 -57 -110 -5 -44 2 -87 22 -135 6 -14 -18 -29 -137 -87
-473 -229 -917 -331 -1434 -331 -528 0 -1030 120 -1489 355 -114 59 -120 63
-117 91 14 156 14 158 -10 203 -13 25 -29 46 -35 48 -6 2 -19 -21 -28 -54z"/>
<path d="M2882 1730 c-41 -16 -76 -31 -79 -34 -3 -2 -47 -116 -97 -253 -51
-136 -102 -266 -113 -288 -34 -65 -70 -95 -114 -95 -49 0 -87 37 -151 146 -74
128 -148 193 -279 244 l-54 21 51 -48 c99 -93 150 -190 229 -433 79 -243 123
-310 203 -310 34 0 99 44 136 93 58 75 128 255 244 627 103 330 112 360 104
359 -4 -1 -40 -14 -80 -29z"/>
<path d="M998 1745 c-15 -15 19 -90 60 -136 91 -101 161 -132 399 -180 173
-34 258 -64 315 -109 45 -37 50 -37 42 -2 -21 88 -109 199 -194 242 -59 30
-189 68 -305 90 -135 25 -190 41 -256 74 -57 29 -54 28 -61 21z"/>
<path d="M1200 1372 c0 -20 44 -85 76 -114 35 -31 129 -68 215 -84 119 -23
208 -51 252 -80 22 -14 41 -23 44 -21 9 9 -33 92 -65 128 -40 45 -143 93 -247
114 -114 23 -234 56 -241 66 -10 16 -34 9 -34 -9z"/>
<path d="M1310 1110 c0 -19 27 -64 52 -86 39 -36 83 -54 197 -79 60 -13 124
-33 142 -44 19 -12 37 -21 41 -21 12 0 -5 45 -29 78 -39 53 -92 81 -204 108
-57 14 -121 31 -142 39 -44 18 -57 19 -57 5z"/>
<path d="M1413 893 c-13 -34 73 -86 164 -98 26 -4 67 -15 91 -26 41 -17 42
-17 42 1 0 25 -62 77 -107 90 -133 38 -185 47 -190 33z"/>
<path d="M1480 721 c0 -20 68 -61 116 -70 27 -5 62 -15 78 -21 32 -12 41 -8
33 14 -10 25 -52 47 -129 67 -83 21 -98 23 -98 10z"/>
</g>
</svg>
