<?xml version="1.0" encoding="utf-8"?>
<svg xmlns="http://www.w3.org/2000/svg" xmlns:xlink="http://www.w3.org/1999/xlink" version= "1.1" width="1013px" height="677px" viewBox="-146 541 1013 677">
<g id="layer1">
<g style="fill:rgb(142,214,251); fill-opacity:1.0; stroke-linejoin: miter">
</g>
<g style="fill:rgb(0,174,199); fill-opacity:1.0; stroke-linejoin: miter">
<path d="M-37.345184,609.79987L-37.47432,609.8127L-38.00326,1133.2083L758.9964,1133.2065L758.67676,609.89044L-37.345184,609.79987 Z"/>
</g>
<g style="fill:rgb(255,0,0); fill-opacity:1.0; stroke-linejoin: miter">
<path d="M268.5444,1074.245L268.80484,1133.2085L379.5757,1133.2083Q361.26797,1103.309,356.08765,1098.2362Q349.04642,1089.2021,341.2976,1085.6383Q335.18427,1082.3293,327.9985,1081.3391Q325.64587,1080.962,320.9799,1080.3639L268.5444,1074.245 Z"/>
</g>
<g style="fill:rgb(255,188,165); fill-opacity:1.0; stroke-linejoin: miter">
<path d="M260.82233,1054.4774L260.1447,1053.4573Q255.57458,1046.9543,254.21829,1041.0369Q252.88393,1035.8774,253.76666,1022.7771Q271.99927,1013.24194,278.8675,1006.8914Q284.863,1001.4545,284.72073,995.6509Q284.6814,988.88745,277.17972,977.81506Q277.5924,972.3441,276.17114,970.88727Q274.5714,968.032,263.15253,967.6367Q265.44897,956.3419,264.43127,950.74725Q262.83508,944.21,254.66772,940.40686Q257.72092,931.5627,255.90454,928.5612Q254.52013,926.76044,250.906,926.814Q248.43274,926.6633,240.3721,928.05927L226.68823,927.7088Q213.55998,913.6306,202.11548,910.42505Q192.63252,908.2696,177.37706,911.25903L193.91705,1010.42L244.67584,1069.8677L260.82233,1054.4774"/>
</g>
<g style="fill:rgb(255,255,255); fill-opacity:1.0; stroke-linejoin: miter">
<path d="M362.34586,1075.3896L360.9706,1074.0824Q339.36847,1054.467,330.77048,1035.2477Q327.66232,1027.8354,325.96432,1019.37897Q324.46658,1012.3935,322.7396,999.10345L321.11984,990.9473Q314.661,991.4138,313.5421,989.97736Q311.57013,986.0424,315.80054,981.8476Q311.84198,982.634,310.89075,980.00006Q310.7472,978.36896,312.18512,976.9445Q313.39215,975.4188,319.5224,970.8691L318.44266,967.98016Q314.91647,964.3477,314.34525,963.0025Q313.5613,961.57324,314.3772,959.6575Q310.2672,969.7941,307.05164,970.95557Q304.69916,972.0116,302.34113,970.97003Q300.03705,969.9016,300.00125,967.4488Q299.7376,964.4368,309.1302,955.48425Q304.47992,951.8933,307.09006,948.9104Q309.62085,946.44696,318.43774,942.5886Q322.61594,939.2769,324.6871,938.1562Q328.1799,936.33203,329.0748,936.1763Q336.87134,933.6372,347.73962,936.9098Q360.10324,941.1524,364.86212,946.3556Q368.26324,948.9128,371.37976,957.29236Q373.3986,961.9612,373.53287,978.91425Q377.0796,982.9242,377.871,985.8125Q378.83762,988.54315,378.8069,995.77057L390.67908,1001.58777L380.20926,1019.3503L397.82425,1049.2981L362.34586,1075.3896"/>
</g>
<g style="fill:rgb(255,188,165); fill-opacity:1.0; stroke-linejoin: miter">
<path d="M389.4085,1000.7729L380.72382,1013.9374L380.7269,1034.4922L389.8028,1045.0261Q374.00507,1047.4429,369.69098,1050.1711Q365.2157,1051.6088,350.6136,1063.6001Q397.63766,1122.9089,408.7831,1133.2074L570.8892,1133.208L581.3102,1113.0801L458.05,1036.8412L453.43362,1042.2903Q429.27393,1029.3358,416.00314,1021.4734Q401.35245,1012.7581,389.4085,1000.7729 Z"/>
</g>
<g style="fill:rgb(0,0,0); fill-opacity:1.0; stroke-linejoin: miter">
<path d="M421.99643,800.30896L419.86377,799.2389Q405.27325,792.482,403.12286,785.5883Q400.64502,779.61847,411.31088,763.3238Q451.22256,736.6831,468.30106,732.46814Q486.49545,726.4221,505.1469,735.41504Q520.7722,744.5477,530.2078,756.8346Q545.914,777.4114,550.48694,792.7028Q556.3386,810.11395,556.9321,829.1973Q557.73535,845.00037,555.56885,874.58746L421.99643,800.30896"/>
</g>
<g style="fill:rgb(255,188,165); fill-opacity:1.0; stroke-linejoin: miter">
<path d="M506.34338,947.5956L505.8731,946.503Q503.2955,940.37866,501.5197,938.174L499.9633,936.70685Q494.3194,935.2463,492.448,933.0101Q489.0405,929.43353,483.2407,919.36743Q446.50262,916.7196,424.41104,886.5339Q419.37372,878.3028,418.92715,869.8772Q417.98456,865.0566,420.88904,845.74493Q420.70047,844.33044,419.83347,842.2754L414.66208,831.02594Q412.53186,824.6407,412.4988,821.2225Q411.9233,811.45013,415.5707,794.6454L444.0191,783.5124L454.71375,795.58435L452.45105,806.60596L466.30573,816.7357L473.53513,834.68634L494.6467,834.91406L491.32047,813.06476Q502.6914,804.5864,508.31796,808.5749Q516.6029,813.91986,528.31055,842.097L546.89026,861.72705L556.27344,861.17944Q565.3768,879.1202,569.6635,884.18964Q573.99744,889.9551,582.1355,893.6846L506.34338,947.5956"/>
</g>
<g style="fill:rgb(255,255,255); fill-opacity:1.0; stroke-linejoin: miter">
<path d="M579.23627,884.2961L566.5487,893.9809Q506.2642,939.5685,491.13562,965.0175Q484.02707,977.49866,482.78052,990.10913L451.98355,1042.279Q459.5335,1036.9519,464.87997,1054.5201L456.41183,1099.333L485.57523,1109.4468L565.72906,1128.3397L562.28485,1133.2072L688.3154,1133.2078Q689.6704,1086.9374,682.68896,1024.8765Q678.3949,991.88855,667.9147,966.2595Q659.47363,943.783,633.9542,920.51733Q615.3834,904.144,579.23627,884.2961 Z"/>
</g>
<g style="fill:rgb(255,255,255); fill-opacity:1.0; stroke-linejoin: miter">
<path d="M487.03787,899.2713L484.3772,899.6531Q476.23743,901.0182,469.51346,900.406Q464.30664,899.342,463.67426,898.5579Q461.98672,897.5804,460.7318,895.9985Q459.49,894.3983,458.68073,892.1941Q458.06473,891.38715,457.02966,884.49646Q456.18137,877.3448,457.07687,861.0883L416.9336,857.19226Q417.45297,875.5082,418.45673,882.6721Q419.54443,892.44403,422.54602,900.5362Q427.0314,912.6892,438.28375,918.90283Q445.77393,923.0552,455.178,925.5275Q462.04306,927.5468,479.88434,930.6586L487.03787,899.2713"/>
</g>
<g style="fill:rgb(255,255,255); fill-opacity:1.0; stroke-linejoin: miter">
<path d="M446.51956,863.5655L446.51956,863.56586Q490.08777,812.3208,533.65607,761.07513Q536.7938,765.9024,539.9315,770.7297Q496.11218,819.4525,452.29288,868.1755L446.51956,863.5655"/>
</g>
<g style="fill:rgb(255,255,255); fill-opacity:1.0; stroke-linejoin: miter">
<path d="M479.74106,902.2495L479.74106,902.24963L556.8522,862.26904Q558.9068,866.15955,560.96136,870.0499Q519.4134,890.71094,477.86548,911.37225L479.74106,902.2495"/>
</g>
<g style="fill:rgb(255,196,175); fill-opacity:1.0; stroke-linejoin: miter">
<path d="M494.7402,835.5621L494.10645,833.7234Q492.08014,828.17914,491.1779,822.88434Q490.62842,819.366,491.2029,816.09717Q491.78357,812.39746,494.93033,808.6259Q496.43774,806.94165,498.2762,805.87445L499.20218,805.39764Q500.16724,804.9612,501.07425,804.75867Q503.42062,804.19885,505.7719,805.1117L507.2023,805.8546Q508.61865,806.7581,509.9885,808.197Q514.78284,813.23303,521.758,827.5712L494.7402,835.5621"/>
</g>
<g style="fill:rgb(253,241,236); fill-opacity:1.0; stroke-linejoin: miter">
<path d="M479.41705,766.5909L479.4171,766.59094L479.4171,766.59106L479.41705,766.5909"/>
</g>
<g style="fill:rgb(255,196,175); fill-opacity:1.0; stroke-linejoin: miter">
<path d="M423.24686,917.344L423.24698,917.3442L423.24713,917.3445L423.24686,917.344"/>
</g>
<g style="fill:rgb(109,109,109); fill-opacity:1.0; stroke-linejoin: miter">
<path d="M349.86386,950.6648L349.86386,950.6648L349.96524,952.9922Q353.7848,952.3041,357.60434,951.61597L349.86386,950.6648"/>
</g>
<g style="fill:rgb(109,109,109); fill-opacity:1.0; stroke-linejoin: miter">
<path d="M273.14603,959.76276L285.8864,956.34454L321.541,953.4197L351.21414,950.50867L350.59518,954.0611L327.678,956.5127Q323.06656,955.9838,320.7535,956.20703Q318.04532,956.55963,316.3731,958.39453Q306.93414,959.7981,300.12872,960.25525Q296.1974,960.56104,285.7968,961.0207L273.14603,959.76276"/>
</g>
<g style="fill:rgb(109,109,109); fill-opacity:1.0; stroke-linejoin: miter">
<path d="M311.1679,979.04236L311.72693,977.57996Q311.4803,977.446,312.66403,976.4295Q313.61572,975.58105,318.13806,971.9791L309.92383,971.662L279.0374,972.74786L277.58063,977.071L309.2646,976.8251L311.1679,979.04236"/>
</g>
<g style="fill:rgb(0,0,0); fill-opacity:1.0; stroke-linejoin: miter">
<path d="M298.77042,1104.8356L287.52307,1102.4692Q250.52852,1094.7483,234.1321,1090.1018Q223.3907,1087.3589,215.8424,1081.6686Q210.72084,1077.7205,205.9464,1070.605L186.60783,1035.5652Q177.44754,1021.3275,174.72899,1018.8591Q162.41093,1002.83124,136.47148,994.1162Q98.939476,983.61523,77.78712,994.2413Q74.625275,996.3529,72.94102,999.14624Q71.39704,1000.2192,70.47399,1008.71936Q70.99905,1019.6729,75.51355,1032.4668Q65.65754,999.29443,66.268265,981.471Q67.723755,963.7317,69.864456,960.3679Q72.23401,953.45013,76.55986,946.72705L80.98893,940.61633Q85.86736,934.5503,92.12444,928.94617Q104.84803,917.5966,120.57349,909.7924Q144.42694,897.69403,166.64479,900.0937Q181.4232,902.763,191.95758,912.7883Q207.68962,928.53906,215.1266,948.0126Q222.46338,966.52783,223.4243,977.3319Q224.16934,984.613,223.41602,990.203Q219.43694,1010.9874,219.72148,1015.8106Q219.317,1024.786,224.04707,1031.867Q229.30832,1038.6367,240.8405,1042.4287Q250.08237,1045.763,271.0255,1049.718L298.77042,1104.8356"/>
</g>
<g style="fill:rgb(76,175,80); fill-opacity:1.0; stroke-linejoin: miter">
<path d="M340.22876,1092.7811L340.2288,1092.7812L340.22885,1092.7812L340.22876,1092.7811"/>
</g>
<g style="fill:rgb(255,255,255); fill-opacity:1.0; stroke-linejoin: miter">
<path d="M122.96343,1073.6371L147.78014,1097.4568Q150.83765,1119.9374,152.76613,1133.2089L162.73524,1133.2087Q162.42564,1112.523,162.08946,1098.4395L185.4344,1074.1831L122.96343,1073.6371 Z"/>
</g>
<g style="fill:rgb(34,43,50); fill-opacity:1.0; stroke-linejoin: miter">
<path d="M110.51137,967.0981L74.07283,980.6831L69.859215,1000.4549Q71.7625,1024.3796,74.86777,1031.496Q83.057526,1048.9227,113.83926,1076.2677Q78.40222,1081.7799,67.71083,1091.8578Q55.363964,1102.9967,59.339245,1133.208L332.7093,1133.2085Q318.9996,1120.2007,281.6757,1090.0117L110.51137,967.0981 Z"/>
</g>
</g>
</svg>